<?xml version="1.0" encoding="utf-8" ?>
<svg baseProfile="full" height="1600" version="1.1" width="1462" xmlns="http://www.w3.org/2000/svg" xmlns:ev="http://www.w3.org/2001/xml-events" xmlns:xlink="http://www.w3.org/1999/xlink"><defs /><path d="M313,507 244,573 166,710 148,821 161,976 174,1004 228,1037 275,1039 356,980 379,948 435,936 531,876 538,1046 547,1051 556,992 544,868 577,850 612,854 624,896 617,1008 625,1013 642,910 678,857 706,838 728,870 727,1001 734,1007 748,893 772,859 810,834 836,873 828,972 841,989 881,987 903,964 938,877 985,847 992,887 986,953 997,980 1016,986 1065,980 1104,935 1104,1012 1066,1039 995,1121 959,1189 936,1275 943,1340 961,1384 997,1410 1013,1413 1029,1404 1073,1355 1100,1293 1115,1165 1118,1020 1248,923 1317,844 1351,783 1358,737 1352,669 1325,597 1297,555 1198,471 1101,419 991,378 822,351 715,353 528,393 411,442 Z" fill="none" stroke="black" stroke-width="1" /></svg>