<?xml version="1.0" encoding="utf-8" ?>
<svg baseProfile="full" height="877" version="1.1" width="1170" xmlns="http://www.w3.org/2000/svg" xmlns:ev="http://www.w3.org/2001/xml-events" xmlns:xlink="http://www.w3.org/1999/xlink"><defs /><path d="M683,55 659,54 648,77 597,54 567,51 553,59 547,75 556,136 583,202 612,243 660,286 645,320 644,363 638,368 536,365 456,380 384,413 327,463 290,524 272,580 264,638 266,728 229,726 214,747 226,794 252,822 270,829 664,829 675,821 668,795 604,758 598,748 669,715 676,721 690,791 711,824 799,826 793,803 753,768 753,729 767,671 821,614 847,572 862,517 863,463 913,438 946,391 954,356 944,338 860,256 756,218 754,178 736,118 714,82 Z" fill="none" stroke="black" stroke-width="1" /></svg>