<?xml version="1.0" encoding="utf-8" ?>
<svg baseProfile="full" height="1600" version="1.1" width="1200" xmlns="http://www.w3.org/2000/svg" xmlns:ev="http://www.w3.org/2001/xml-events" xmlns:xlink="http://www.w3.org/1999/xlink"><defs /><path d="M798,451 768,441 721,449 652,504 632,544 605,523 574,517 537,545 437,485 380,467 347,470 316,493 305,531 316,565 405,651 436,742 409,651 315,556 307,533 319,498 311,536 322,563 409,645 440,725 434,800 401,916 407,963 428,971 475,959 512,936 547,887 509,934 468,959 426,969 406,957 403,918 436,802 442,723 410,641 322,557 313,533 322,498 355,475 379,474 431,491 533,551 577,524 635,546 666,503 731,453 760,447 794,459 815,541 747,710 740,783 751,823 804,891 809,918 788,939 737,946 688,931 639,897 686,933 748,948 791,941 811,920 807,890 754,822 742,781 752,703 805,573 782,656 821,553 818,490 Z" fill="none" stroke="black" stroke-width="1" /></svg>