<?xml version="1.0" encoding="utf-8" ?>
<svg baseProfile="full" height="360" version="1.1" width="363" xmlns="http://www.w3.org/2000/svg" xmlns:ev="http://www.w3.org/2001/xml-events" xmlns:xlink="http://www.w3.org/1999/xlink"><defs /><path d="M89,58 79,74 74,92 75,141 90,200 116,250 113,251 110,246 105,246 103,250 82,238 43,230 40,233 42,237 64,235 65,238 69,237 88,247 41,247 38,250 39,254 53,249 59,250 61,247 71,247 73,250 79,248 81,251 101,256 104,263 116,268 126,277 132,294 129,304 135,304 136,293 133,291 134,281 144,293 147,304 150,297 145,284 157,296 162,292 170,295 192,293 238,302 258,302 274,297 272,289 276,285 283,285 282,270 290,267 286,251 295,244 295,239 287,234 290,225 282,220 284,211 279,210 273,202 245,200 260,184 261,165 254,160 253,149 245,146 244,135 236,130 235,122 229,116 217,72 210,68 202,68 181,84 180,79 175,79 174,83 181,85 164,115 160,116 151,105 140,98 110,58 103,55 Z" fill="none" stroke="black" stroke-width="1" /></svg>