<?xml version="1.0" encoding="utf-8" ?>
<svg baseProfile="full" height="970" version="1.1" width="1135" xmlns="http://www.w3.org/2000/svg" xmlns:ev="http://www.w3.org/2001/xml-events" xmlns:xlink="http://www.w3.org/1999/xlink"><defs /><path d="M1000,293 971,274 959,296 925,294 905,256 851,253 842,214 826,232 826,190 809,220 795,183 788,226 767,192 770,244 749,225 747,247 780,280 730,301 740,309 715,324 727,330 702,375 715,376 705,404 717,400 724,452 736,445 738,472 751,467 752,492 763,484 776,527 790,525 781,567 759,569 765,582 745,573 745,587 735,567 723,575 725,551 711,558 726,529 702,534 706,485 691,490 700,462 685,465 693,438 678,442 671,392 660,402 654,372 644,383 606,347 602,361 581,344 579,358 527,349 531,362 502,358 507,371 460,389 470,398 443,410 455,417 414,477 426,483 408,501 420,504 404,524 416,528 397,568 408,575 387,583 393,595 373,589 376,603 364,586 352,595 356,574 341,578 358,561 344,553 387,498 373,490 395,473 380,467 400,418 384,421 396,393 381,398 388,368 374,375 357,326 348,337 307,304 301,318 277,303 276,317 213,274 160,302 185,313 144,339 127,389 152,425 154,375 191,348 196,361 167,377 222,389 272,357 310,393 311,445 256,593 275,676 250,727 287,772 368,773 300,727 339,701 391,704 386,744 423,772 498,773 432,717 474,662 524,487 569,457 593,481 588,535 601,537 622,634 678,699 665,727 699,771 782,773 715,726 796,698 829,770 911,773 867,750 841,708 888,549 803,364 839,363 872,413 913,416 930,392 902,388 899,348 872,324 944,345 943,366 968,345 968,363 995,337 Z" fill="none" stroke="black" stroke-width="1" /></svg>