<?xml version="1.0" encoding="utf-8" ?>
<svg baseProfile="full" height="2048" version="1.1" width="1536" xmlns="http://www.w3.org/2000/svg" xmlns:ev="http://www.w3.org/2001/xml-events" xmlns:xlink="http://www.w3.org/1999/xlink"><defs /><path d="M617,721 567,733 532,749 499,778 482,805 472,867 474,901 485,940 513,976 431,976 386,1000 354,1026 322,1059 302,1094 290,1131 283,1183 304,1257 352,1316 372,1331 411,1346 484,1345 474,1391 476,1460 518,1548 582,1610 667,1642 695,1643 778,1610 807,1591 851,1548 885,1490 908,1419 949,1450 1008,1451 1078,1429 1109,1410 1159,1352 1190,1293 1193,1253 1187,1225 1167,1178 1128,1135 1060,1101 1016,1091 1043,1082 1053,1072 1080,1007 1088,973 1087,928 1077,884 1061,845 1040,821 1010,798 974,781 933,772 871,776 809,802 773,840 747,778 714,743 674,726 Z" fill="none" stroke="black" stroke-width="1" /></svg>