<?xml version="1.0" encoding="utf-8" ?>
<svg baseProfile="full" height="2048" version="1.1" width="1536" xmlns="http://www.w3.org/2000/svg" xmlns:ev="http://www.w3.org/2001/xml-events" xmlns:xlink="http://www.w3.org/1999/xlink"><defs /><path d="M617,721 532,749 499,778 482,805 474,901 485,940 513,976 431,976 354,1026 322,1059 302,1094 283,1183 304,1257 352,1316 411,1346 484,1345 474,1391 476,1460 518,1548 582,1610 667,1642 695,1643 778,1610 851,1548 885,1490 908,1419 949,1450 1008,1451 1078,1429 1109,1410 1159,1352 1190,1293 1193,1253 1167,1178 1128,1135 1060,1101 1016,1091 1053,1072 1088,973 1077,884 1061,845 1040,821 974,781 898,772 825,793 773,840 747,778 714,743 674,726 Z" fill="none" stroke="black" stroke-width="1" /></svg>