<?xml version="1.0" encoding="utf-8" ?>
<svg baseProfile="full" height="1600" version="1.1" width="1200" xmlns="http://www.w3.org/2000/svg" xmlns:ev="http://www.w3.org/2001/xml-events" xmlns:xlink="http://www.w3.org/1999/xlink"><defs /><path d="M529,247 411,313 323,450 265,663 269,843 302,955 378,1071 465,1140 637,1347 686,1362 820,1245 1012,966 997,900 961,889 681,905 427,868 568,648 534,410 760,511 915,460 764,505 537,398 525,419 562,645 421,874 684,911 969,896 1004,921 1007,960 789,1272 676,1354 641,1341 471,1135 368,1047 288,900 269,697 317,482 405,329 509,258 623,258 785,326 919,453 855,369 771,310 630,253 Z" fill="none" stroke="black" stroke-width="1" /></svg>