<?xml version="1.0" encoding="utf-8" ?>
<svg baseProfile="full" height="1600" version="1.1" width="1200" xmlns="http://www.w3.org/2000/svg" xmlns:ev="http://www.w3.org/2001/xml-events" xmlns:xlink="http://www.w3.org/1999/xlink"><defs /><path d="M115,446 105,539 121,630 217,960 249,986 283,988 313,966 383,852 477,728 584,613 666,545 758,799 978,922 961,945 779,1028 744,1055 715,1127 696,1225 810,1226 921,1192 1056,1111 1121,1032 1142,957 1135,875 1073,723 995,612 929,540 786,437 674,394 556,384 494,389 433,411 169,418 Z" fill="none" stroke="black" stroke-width="1" /></svg>