<?xml version="1.0" standalone="no"?>
<!DOCTYPE svg PUBLIC "-//W3C//DTD SVG 20010904//EN"
 "http://www.w3.org/TR/2001/REC-SVG-20010904/DTD/svg10.dtd">
<svg version="1.0" xmlns="http://www.w3.org/2000/svg"
 width="3960.000000pt" height="2808.000000pt" viewBox="0 0 3960.000000 2808.000000"
 preserveAspectRatio="xMidYMid meet">

<g transform="translate(0.000000,2808.000000) scale(0.100000,-0.100000)"
fill="#000000" stroke="none">
<path d="M5190 27099 c-311 -4 -556 -11 -585 -17 -88 -18 -127 -30 -138 -41
-6 -6 -17 -11 -25 -11 -13 0 -146 -59 -182 -81 -8 -5 -40 -20 -70 -35 -73 -34
-121 -67 -199 -133 -208 -179 -357 -388 -349 -492 4 -57 28 -65 28 -10 0 35
15 87 30 101 3 3 12 19 21 35 30 57 44 79 67 101 12 12 22 26 22 31 0 24 253
263 286 271 8 2 14 7 14 12 0 8 143 80 160 80 5 0 10 4 10 8 0 5 18 15 40 22
22 7 45 19 51 27 6 7 20 13 30 13 10 0 21 5 24 10 3 6 17 10 30 10 13 0 25 4
27 10 4 11 83 32 183 48 82 13 1351 23 1460 11 39 -4 90 -12 115 -18 25 -7 72
-16 105 -20 33 -5 78 -14 100 -19 22 -5 85 -15 140 -22 55 -6 121 -18 147 -26
26 -8 57 -14 70 -14 25 0 119 -19 208 -43 30 -8 75 -18 100 -21 24 -4 49 -10
55 -15 5 -4 39 -16 75 -25 81 -23 163 -52 215 -77 22 -10 43 -19 47 -19 8 0
113 -47 193 -86 28 -13 54 -24 58 -24 8 0 107 -61 130 -80 7 -6 46 -35 87 -66
74 -56 102 -83 177 -171 56 -67 86 -119 117 -203 16 -41 34 -91 42 -110 28
-75 28 -83 2 -74 -74 23 -130 37 -185 44 -34 5 -90 17 -125 26 -57 15 -123 16
-688 11 -591 -6 -667 -9 -835 -39 -100 -17 -230 -91 -282 -160 -59 -79 -66
-104 -70 -258 -4 -108 -1 -165 11 -221 18 -90 73 -211 115 -257 17 -18 34 -38
38 -46 8 -13 94 -76 123 -89 8 -4 29 -16 45 -27 17 -11 46 -27 65 -36 19 -9
42 -20 50 -25 8 -5 22 -12 30 -15 118 -47 146 -59 155 -66 5 -4 16 -8 25 -8 8
0 28 -7 44 -15 15 -8 35 -15 42 -15 8 0 22 -4 32 -9 25 -15 191 -62 287 -83
133 -29 520 -7 559 32 5 5 18 10 28 10 11 0 38 9 60 20 23 11 48 20 55 20 7 0
13 4 13 10 0 5 17 18 38 29 50 26 282 258 282 282 0 5 4 9 8 9 4 0 16 15 27
33 10 17 22 34 25 37 12 9 40 68 40 85 0 8 4 15 9 15 9 0 20 41 44 155 12 60
15 437 4 481 l-8 31 58 -13 c32 -6 85 -19 118 -28 32 -9 68 -16 80 -16 11 0
56 -9 100 -21 44 -11 109 -24 145 -29 36 -5 107 -18 159 -29 52 -12 109 -21
127 -21 18 0 45 -5 60 -10 15 -6 61 -15 103 -21 42 -5 85 -14 96 -19 11 -5 34
-11 50 -14 84 -15 131 -26 245 -60 69 -21 148 -49 177 -62 28 -13 54 -24 57
-24 12 0 245 -112 386 -185 14 -8 104 -52 200 -100 212 -104 253 -126 263
-142 4 -7 14 -13 22 -13 8 0 22 -11 31 -25 9 -14 22 -25 28 -25 7 0 55 -42
106 -92 l93 -93 -194 -6 c-107 -3 -207 -11 -222 -18 -16 -6 -42 -11 -58 -11
-52 0 -260 -53 -337 -86 -18 -8 -40 -14 -48 -14 -9 0 -35 -10 -58 -21 -22 -12
-49 -25 -58 -30 -10 -5 -24 -9 -32 -9 -7 0 -19 -7 -26 -15 -7 -8 -19 -15 -27
-15 -15 0 -130 -82 -205 -147 -42 -37 -116 -114 -230 -240 -41 -45 -97 -152
-130 -247 -19 -53 -20 -75 -15 -196 5 -119 9 -142 32 -187 35 -71 119 -152
228 -223 51 -32 124 -82 164 -109 39 -28 78 -51 87 -51 8 0 17 -4 21 -9 3 -5
19 -12 35 -16 17 -4 30 -10 30 -13 0 -4 21 -16 48 -26 26 -11 58 -26 71 -35
51 -33 128 -52 235 -58 116 -6 276 9 361 34 28 8 65 19 84 25 37 11 119 49
165 76 70 41 192 160 209 205 3 9 10 17 15 17 12 0 75 128 95 190 34 105 40
169 34 333 -6 154 -27 333 -42 358 -4 6 -14 43 -22 82 -7 40 -20 92 -28 117
-7 25 -26 86 -41 135 -15 50 -38 110 -52 134 l-26 44 110 -6 c100 -6 160 -17
249 -45 17 -6 66 -22 110 -37 44 -14 94 -30 112 -34 17 -5 53 -18 80 -30 26
-12 68 -31 93 -42 76 -35 103 -47 145 -64 22 -9 54 -23 70 -30 17 -8 55 -25
85 -38 30 -14 85 -39 121 -56 36 -17 70 -31 75 -31 13 0 159 -74 162 -82 2 -5
11 -8 19 -8 20 0 233 -98 243 -112 3 -4 17 -12 30 -17 14 -6 32 -15 40 -19 8
-5 29 -17 45 -26 17 -9 46 -24 65 -33 44 -19 123 -73 133 -90 4 -7 12 -13 18
-13 16 0 147 -91 153 -106 3 -8 11 -14 18 -14 7 0 24 -9 38 -20 26 -20 60 -27
60 -11 0 4 -19 21 -42 36 -24 15 -63 45 -88 65 -25 20 -63 47 -85 60 -22 13
-51 33 -65 46 -14 12 -54 37 -90 55 -36 18 -76 41 -89 51 -13 10 -32 18 -41
18 -10 0 -20 7 -24 15 -3 8 -14 15 -25 15 -11 0 -22 4 -25 9 -6 9 -95 53 -201
101 -27 12 -91 42 -141 66 -50 24 -94 44 -99 44 -4 0 -38 14 -74 31 -36 17
-91 43 -121 56 -30 14 -78 36 -107 49 -28 13 -55 24 -59 24 -4 0 -25 9 -48 19
-114 55 -195 90 -231 101 -22 7 -56 19 -75 26 -19 7 -60 20 -90 30 -30 9 -68
20 -85 26 -95 30 -143 38 -262 44 l-132 7 -64 71 c-62 68 -219 202 -282 239
-16 9 -113 58 -215 108 -102 50 -192 95 -200 100 -53 30 -310 153 -384 184
-49 20 -96 41 -105 45 -28 16 -289 90 -315 90 -14 0 -28 5 -31 10 -3 6 -24 10
-45 10 -21 0 -41 4 -45 9 -3 5 -36 13 -73 17 -37 3 -87 13 -112 20 -25 8 -59
14 -76 14 -17 0 -73 9 -125 21 -52 11 -128 25 -169 30 -41 5 -86 14 -100 19
-14 5 -63 16 -110 25 -47 8 -133 27 -192 41 -104 26 -107 27 -114 58 -4 17
-12 44 -19 61 -7 16 -27 66 -43 111 -42 112 -88 180 -195 288 -84 84 -169 150
-280 216 -83 50 -480 220 -514 220 -16 0 -103 28 -125 40 -9 5 -36 13 -60 16
-24 4 -68 13 -98 21 -89 24 -183 43 -208 43 -13 0 -44 6 -70 14 -26 8 -92 20
-147 26 -55 7 -118 17 -140 22 -22 5 -67 14 -100 19 -33 4 -80 13 -105 19 -25
7 -79 15 -120 20 -80 9 -105 9 -940 -1z m2802 -1124 c33 -9 87 -20 121 -25 63
-8 196 -42 215 -54 6 -3 16 -30 22 -59 14 -62 8 -365 -8 -447 -18 -88 -29
-130 -40 -143 -5 -7 -12 -23 -15 -37 -16 -66 -225 -306 -344 -396 -39 -30 -74
-54 -77 -54 -4 0 -25 -8 -49 -18 -72 -31 -109 -43 -192 -60 -99 -21 -344 -23
-430 -4 -96 21 -262 68 -287 83 -10 5 -24 9 -32 9 -7 0 -27 7 -42 15 -16 8
-36 15 -45 15 -8 0 -19 4 -25 8 -5 5 -29 17 -54 26 -25 10 -67 28 -95 41 -27
12 -61 28 -75 34 -14 6 -43 22 -65 36 -22 14 -47 28 -55 32 -41 19 -109 77
-141 120 -99 131 -134 256 -126 458 4 127 11 157 50 220 25 40 112 115 134
115 7 0 13 5 13 10 0 6 8 10 18 10 10 0 22 4 28 9 53 49 313 66 1103 69 363 2
443 -1 493 -13z m3134 -1203 c18 -26 44 -87 59 -137 14 -49 33 -110 40 -135 7
-25 19 -70 25 -100 6 -30 16 -68 21 -85 37 -110 60 -455 39 -571 -13 -73 -36
-152 -49 -169 -5 -5 -11 -22 -15 -36 -3 -15 -37 -67 -75 -116 -91 -118 -184
-194 -291 -237 -25 -10 -53 -22 -62 -27 -10 -5 -26 -9 -35 -9 -10 0 -35 -6
-58 -14 -98 -35 -422 -47 -458 -18 -7 5 -28 13 -47 17 -19 4 -40 11 -46 16
-22 17 -213 109 -228 109 -8 0 -18 5 -21 10 -3 6 -45 35 -93 66 -160 103 -189
124 -248 178 -35 32 -71 76 -87 109 -25 48 -29 69 -34 179 -5 109 -3 131 15
184 22 63 79 181 99 204 126 148 262 283 344 343 35 26 69 51 74 55 6 5 23 12
38 16 15 3 27 11 27 16 0 6 7 10 15 10 8 0 23 4 33 9 56 30 104 51 117 51 8 0
29 6 47 14 85 36 185 62 333 86 33 6 80 14 105 19 25 5 122 9 215 10 l170 1
31 -48z"/>
</g>
</svg>
