<?xml version="1.0" encoding="utf-8" ?>
<svg baseProfile="full" height="1600" version="1.1" width="1166" xmlns="http://www.w3.org/2000/svg" xmlns:ev="http://www.w3.org/2001/xml-events" xmlns:xlink="http://www.w3.org/1999/xlink"><defs /><path d="M343,150 307,167 280,194 247,279 247,305 314,528 313,562 223,651 109,718 73,778 52,1053 65,1188 88,1234 130,1284 384,1420 483,1457 566,1475 640,1478 725,1466 778,1448 841,1409 915,1331 963,1227 978,1137 965,926 927,740 871,538 833,281 815,240 778,202 723,176 554,153 Z" fill="none" stroke="black" stroke-width="1" /></svg>