<?xml version="1.0" encoding="utf-8" ?>
<svg baseProfile="full" height="1600" version="1.1" width="1200" xmlns="http://www.w3.org/2000/svg" xmlns:ev="http://www.w3.org/2001/xml-events" xmlns:xlink="http://www.w3.org/1999/xlink"><defs /><path d="M676,326 603,350 552,376 497,418 469,457 397,373 379,363 381,437 423,628 353,598 281,582 357,663 389,717 391,744 356,839 338,943 344,1025 367,1126 389,1169 440,1224 498,1257 577,1278 668,1264 728,1221 779,1150 806,1064 810,974 800,904 762,806 721,749 761,690 819,661 721,595 796,499 655,489 637,510 643,417 663,384 657,377 Z" fill="none" stroke="black" stroke-width="1" /></svg>