<?xml version="1.0" encoding="UTF-8" standalone="no"?>
<!-- Created with Inkscape (http://www.inkscape.org/) -->

<svg
   width="210mm"
   height="297mm"
   viewBox="0 0 210 297"
   version="1.1"
   id="svg1"
   sodipodi:docname="spiral.svg"
   inkscape:version="1.3 (0e150ed6c4, 2023-07-21)"
   xmlns:inkscape="http://www.inkscape.org/namespaces/inkscape"
   xmlns:sodipodi="http://sodipodi.sourceforge.net/DTD/sodipodi-0.dtd"
   xmlns="http://www.w3.org/2000/svg"
   xmlns:svg="http://www.w3.org/2000/svg">
  <sodipodi:namedview
     id="namedview1"
     pagecolor="#ffffff"
     bordercolor="#999999"
     borderopacity="1"
     inkscape:showpageshadow="2"
     inkscape:pageopacity="0"
     inkscape:pagecheckerboard="0"
     inkscape:deskcolor="#d1d1d1"
     inkscape:document-units="mm"
     inkscape:zoom="0.98973765"
     inkscape:cx="397.07492"
     inkscape:cy="400.10603"
     inkscape:window-width="2560"
     inkscape:window-height="1346"
     inkscape:window-x="1909"
     inkscape:window-y="-11"
     inkscape:window-maximized="1"
     inkscape:current-layer="layer1" />
  <defs
     id="defs1">
    <linearGradient
       id="swatch2"
       inkscape:swatch="solid">
      <stop
         style="stop-color:#000000;stop-opacity:1;"
         offset="0"
         id="stop2" />
    </linearGradient>
    <linearGradient
       id="swatch1"
       inkscape:swatch="solid">
      <stop
         style="stop-color:#ffffff;stop-opacity:1;"
         offset="0"
         id="stop1" />
    </linearGradient>
  </defs>
  <g
     inkscape:label="Layer 1"
     inkscape:groupmode="layer"
     id="layer1">
    <path
       sodipodi:type="spiral"
       style="fill:none;fill-rule:evenodd;stroke:#000000;stroke-width:0.264583"
       id="path3"
       sodipodi:cx="64.960396"
       sodipodi:cy="50.524754"
       sodipodi:expansion="1"
       sodipodi:revolution="3"
       sodipodi:radius="42.534363"
       sodipodi:argument="-21.737024"
       sodipodi:t0="0"
       d="m 64.960396,50.524754 c -2.064114,-0.536133 -0.295665,-3.046894 0.891087,-3.430694 3.216027,-1.040074 5.814619,2.335088 5.9703,5.212868 0.278476,5.147674 -4.751076,8.725406 -9.53465,8.509906 C 55.267047,60.500579 50.593638,53.627465 51.237622,46.960404 52.095951,38.07426 60.871831,32.276143 69.415833,33.371286 80.167588,34.749412 87.102237,45.45312 85.544557,55.871278 83.657997,68.489064 71.013596,76.566348 58.722784,74.539608 44.238487,72.151165 35.014964,57.558595 37.514848,43.396054 40.401064,27.044839 56.946531,16.672757 72.980183,19.648512 91.198637,23.029754 102.72086,41.531302 99.267331,59.435628 95.392987,79.521576 74.933112,92.195084 55.158434,88.262382 33.204793,83.896337 19.379163,61.47649 23.792074,39.831704" />
  </g>
</svg>
