<?xml version="1.0" encoding="utf-8" ?>
<svg baseProfile="full" height="1600" version="1.1" width="1200" xmlns="http://www.w3.org/2000/svg" xmlns:ev="http://www.w3.org/2001/xml-events" xmlns:xlink="http://www.w3.org/1999/xlink"><defs /><path d="M431,533 300,615 216,763 221,922 249,998 318,1083 465,1169 656,1168 788,1111 856,1034 883,973 895,814 866,730 777,643 673,603 576,592 460,630 384,718 346,844 372,969 458,1050 547,1081 649,1075 736,1018 776,948 776,871 731,784 656,736 575,733 513,763 477,820 471,884 492,933 532,961 580,976 637,965 676,920 658,845 616,832 574,842 568,876 588,898 603,893 577,875 580,854 608,841 652,852 641,853 670,891 666,924 639,955 588,968 499,925 479,843 506,785 565,744 653,744 731,799 769,877 769,943 703,1037 613,1073 506,1063 416,1008 363,924 354,853 366,788 438,662 516,612 640,604 783,656 872,758 891,864 884,936 835,1049 774,1111 697,1150 505,1169 400,1132 268,1009 220,871 223,773 258,689 310,618 359,582 533,514 657,525 749,557 893,682 965,832 975,896 960,1023 982,911 972,828 934,728 844,615 759,553 671,519 521,509 Z" fill="none" stroke="black" stroke-width="1" /></svg>