<?xml version="1.0" encoding="utf-8" ?>
<svg baseProfile="full" height="360" version="1.1" width="363" xmlns="http://www.w3.org/2000/svg" xmlns:ev="http://www.w3.org/2001/xml-events" xmlns:xlink="http://www.w3.org/1999/xlink"><defs /><path d="M89,58 80,71 75,88 75,139 88,194 97,217 114,247 105,246 102,249 88,240 71,234 42,231 42,237 61,237 83,245 40,248 39,253 74,250 100,256 106,264 127,278 132,299 134,299 132,280 139,285 147,303 151,302 149,289 155,296 160,296 162,293 170,295 191,293 244,303 254,303 273,297 273,288 283,284 282,271 290,267 286,251 292,247 295,239 287,233 290,225 282,219 284,212 279,210 273,202 246,200 261,182 261,165 255,161 253,149 244,144 244,136 238,132 236,123 229,115 217,72 203,68 192,73 177,89 164,114 160,116 151,105 142,100 110,58 103,55 Z" fill="none" stroke="black" stroke-width="1" /></svg>