<?xml version="1.0" encoding="utf-8" ?>
<svg baseProfile="full" height="640" version="1.1" width="612" xmlns="http://www.w3.org/2000/svg" xmlns:ev="http://www.w3.org/2001/xml-events" xmlns:xlink="http://www.w3.org/1999/xlink"><defs /><path d="M107,6 83,45 66,114 73,291 22,290 20,297 8,298 4,330 52,365 116,395 114,506 123,534 141,551 140,605 146,619 153,620 170,592 179,558 212,545 250,513 314,480 327,480 336,459 365,467 368,426 406,430 416,374 564,355 601,238 456,276 382,311 373,399 341,401 340,430 332,431 298,346 359,247 349,227 336,221 323,222 275,252 256,184 364,190 411,181 414,173 355,145 296,136 208,150 161,146 111,164 120,56 115,11 Z" fill="none" stroke="black" stroke-width="1" /></svg>