<?xml version="1.0" encoding="utf-8" ?>
<svg baseProfile="full" height="1178" version="1.1" width="1170" xmlns="http://www.w3.org/2000/svg" xmlns:ev="http://www.w3.org/2001/xml-events" xmlns:xlink="http://www.w3.org/1999/xlink"><defs /><path d="M590,299 561,321 549,355 552,432 517,439 493,454 407,456 348,486 319,517 296,557 271,648 283,651 327,616 340,625 382,571 416,540 411,623 424,669 424,705 435,733 458,763 421,839 418,887 427,905 438,910 479,903 493,882 499,836 527,862 571,886 586,936 595,940 608,901 618,901 613,886 654,864 685,836 690,880 705,903 742,911 755,907 764,891 766,858 759,828 725,763 751,729 759,706 759,670 771,633 768,540 800,569 842,624 850,625 857,616 902,652 911,651 889,560 861,512 823,477 831,475 831,467 823,466 819,475 758,452 692,455 667,439 634,434 628,422 634,354 622,320 Z" fill="none" stroke="black" stroke-width="1" /></svg>