<?xml version="1.0" encoding="utf-8" ?>
<svg baseProfile="full" height="1600" version="1.1" width="1200" xmlns="http://www.w3.org/2000/svg" xmlns:ev="http://www.w3.org/2001/xml-events" xmlns:xlink="http://www.w3.org/1999/xlink"><defs /><path d="M365,216 340,250 342,264 362,279 466,316 637,337 778,431 689,433 667,459 664,489 677,512 719,533 686,540 694,569 779,595 816,633 682,640 781,655 821,683 826,706 796,731 685,733 765,737 795,749 822,774 823,798 795,812 699,805 692,824 715,847 784,861 827,889 807,899 689,900 779,916 816,935 835,962 816,975 704,982 769,987 807,1001 845,1042 831,1057 736,1054 701,1072 704,1086 810,1120 845,1150 734,1153 704,1171 705,1217 770,1259 663,1247 611,1187 559,1148 490,1122 398,1131 371,1159 367,1197 394,1219 438,1231 657,1253 764,1379 805,1399 844,1393 893,1356 962,1229 994,1136 1024,974 1053,739 1060,578 1046,432 1013,329 976,263 921,205 881,188 838,188 817,163 830,190 693,205 660,232 656,264 672,300 741,341 642,331 556,271 460,221 Z" fill="none" stroke="black" stroke-width="1" /></svg>